<!DOCTYPE svg PUBLIC "-//W3C//DTD SVG 1.1//EN" "http://www.w3.org/Graphics/SVG/1.1/DTD/svg11.dtd">
<!-- Uploaded to: SVG Repo, www.svgrepo.com, Transformed by: SVG Repo Mixer Tools -->
<svg fill="#6E6A77" width="800px" height="800px" viewBox="-1 0 19 19" xmlns="http://www.w3.org/2000/svg" class="cf-icon-svg">
<g id="SVGRepo_bgCarrier" stroke-width="0"/>
<g id="SVGRepo_tracerCarrier" stroke-linecap="round" stroke-linejoin="round"/>
<g id="SVGRepo_iconCarrier">
<path d="M16.417 6.823v7.809a.557.557 0 0 1-.556.555H1.139a.557.557 0 0 1-.556-.555V6.823a.557.557 0 0 1 .556-.555h14.722a.557.557 0 0 1 .556.555zm-14.722.92v6.146l4.463-2.89zm12.223-.364H3.082l4.463 3.257a1.777 1.777 0 0 0 1.91 0zM3.45 14.076h10.096L9.864 11.69a2.926 2.926 0 0 1-2.728 0zm11.855-.184v-6.15L10.842 11z"/>
</g>
</svg>